<?xml version="1.0" encoding="UTF-8" standalone="no"?>
<svg
   xmlns:dc="http://purl.org/dc/elements/1.1/"
   xmlns:cc="http://creativecommons.org/ns#"
   xmlns:rdf="http://www.w3.org/1999/02/22-rdf-syntax-ns#"
   xmlns:svg="http://www.w3.org/2000/svg"
   xmlns="http://www.w3.org/2000/svg"
   version="1.1"
   id="svg2"
   viewBox="0 0 100.96449 99.954337"
   height="28.209335mm"
   width="28.494423mm">
  <defs
     id="defs4" />
  <metadata
     id="metadata7">
    <rdf:RDF>
      <cc:Work
         rdf:about="">
        <dc:format>image/svg+xml</dc:format>
        <dc:type
           rdf:resource="http://purl.org/dc/dcmitype/StillImage" />
        <dc:title></dc:title>
      </cc:Work>
    </rdf:RDF>
  </metadata>
  <g
     transform="translate(-326.80975,-322.55237)"
     id="layer1">
    <ellipse
       ry="47.485737"
       rx="47.990814"
       cy="372.52954"
       cx="377.29199"
       id="path4147"
       style="fill:none;fill-opacity:1;fill-rule:nonzero;stroke:#000000;stroke-width:4.98286486;stroke-linecap:round;stroke-linejoin:round;stroke-miterlimit:4;stroke-dasharray:none;stroke-opacity:1" />
    <path
       id="path4210"
       d="m 376.21237,330.24076 c -14.23357,0.20667 -28.18048,8.02313 -35.50577,20.2772 -6.89799,10.99415 -8.10533,25.25453 -3.29055,37.29065 4.65669,12.02703 15.13968,21.57038 27.53733,25.11222 4.03024,1.23655 8.24679,1.78335 12.45944,1.6077 3.92211,0.0546 7.8467,-0.41066 11.59453,-1.59383 11.67623,-3.49225 21.85597,-12.05772 26.73545,-23.29643 2.43978,-5.52582 3.85218,-11.55773 3.61743,-17.61911 0.13614,-13.0606 -6.65296,-25.79276 -17.14112,-33.45984 -7.44803,-5.55092 -16.71705,-8.52697 -26.00674,-8.31856 z m 25.13044,20.10672 c 2.57513,-0.0647 4.6373,3.05753 3.22126,5.32506 -0.89081,1.72146 -3.25204,2.41791 -4.9421,1.45333 -0.67041,-0.4005 -1.30234,-0.88601 -2.14426,-0.77671 -13.07897,-0.31781 -26.16547,-0.25123 -39.24751,-0.39991 -1.15301,-0.2656 -2.27557,0.51856 -2.77362,1.52226 -0.58693,2.77033 -0.2394,5.65351 -0.37947,8.46714 0.01,2.6684 -0.10412,5.35713 -0.0185,8.01305 0.66185,0.89035 1.37253,1.98687 2.63767,1.93809 5.90738,0.34702 11.83578,0.0655 17.7512,0.13438 3.17827,-0.0434 6.38399,0.0566 9.54521,-0.0758 1.45663,-1.83136 4.54872,-1.96412 5.97552,-0.0711 1.32321,1.64917 0.78244,4.34994 -1.1098,5.33935 -1.54039,0.9156 -3.659,0.44535 -4.76004,-0.94866 -9.3305,-0.11088 -18.70932,0.2192 -28.05594,-0.0188 -3.23026,-0.67733 -6.26784,-3.45275 -6.21966,-6.89907 -0.10067,-5.18119 -0.0488,-10.39452 0.1573,-15.55803 0.2896,-3.06327 3.03923,-5.73755 6.05642,-6.09154 13.56835,0.0315 27.13828,0.28135 40.70592,0.12021 0.75986,0.17377 0.95567,-0.65268 1.60122,-0.85973 0.62095,-0.3406 1.28951,-0.65058 1.99916,-0.61349 z m -34.92222,12.30887 c 1.11926,-0.009 2.06397,0.68602 2.79052,1.44462 8.97157,-0.0214 17.94598,-0.31708 26.91616,-0.12765 2.72074,-0.096 5.17035,1.81659 6.50042,4.08831 1.03657,1.99882 0.54457,4.35715 0.69865,6.52099 -0.0815,4.15099 0.15645,8.32268 -0.19607,12.46094 -0.55726,2.35805 -2.39211,4.42356 -4.64949,5.21624 -3.95445,0.54342 -8.05994,0.20937 -12.07237,0.27559 -10.10012,-0.0841 -20.20021,-0.17197 -30.30032,-0.25641 -1.07002,1.0213 -2.53276,1.97689 -4.09459,1.52693 -2.16318,-0.39513 -3.74586,-3.04941 -2.49896,-5.04813 0.77075,-1.65888 2.75799,-2.45666 4.45871,-1.82861 1.07107,0.27245 1.75971,1.4359 2.97882,1.09035 13.352,0.0981 26.71476,0.2779 40.06003,0.32496 0.99895,-0.44785 1.90389,-1.25554 1.85408,-2.44384 0.26657,-5.09953 0.19164,-10.21718 0.13462,-15.32227 -0.4524,-1.567 -2.15556,-2.54058 -3.7508,-2.3694 -8.64341,-0.0754 -17.28754,0.107 -25.93112,0.14528 -1.30945,1.28825 -3.44114,1.92103 -5.11265,0.91518 -1.25486,-0.66049 -1.88541,-2.09059 -1.6469,-3.47691 -0.0917,-1.95727 2.10277,-3.26683 3.86126,-3.13617 z"
       style="fill:#000000;fill-opacity:1;fill-rule:nonzero;stroke:none;stroke-width:0.17857143;stroke-linecap:round;stroke-linejoin:round;stroke-miterlimit:4;stroke-dasharray:none;stroke-opacity:1" />
  </g>
</svg>
